<svg width="24" height="24" viewBox="0 0 24 24" fill="none" xmlns="http://www.w3.org/2000/svg">
<g id="Frame">
<g id="Group">
<path id="Vector" d="M10.4962 4C3.62469 5.33333 3 12 3 12M3 12V16.2519C3 16.9471 3 17.2947 3.05736 17.5838C3.2937 18.7751 4.22493 19.7063 5.41618 19.9426C5.70527 20 6.05289 20 6.74812 20V20C7.44335 20 7.79097 20 8.08006 19.9426C9.2713 19.7063 10.2025 18.7751 10.4389 17.5838C10.4962 17.2947 10.4962 16.9471 10.4962 16.2519V16C10.4962 15.07 10.4962 14.605 10.394 14.2235C10.1166 13.1883 9.30797 12.3796 8.2727 12.1022C7.8912 12 7.42621 12 6.49624 12H3Z" stroke="white" stroke-width="1.5"/>
<path id="Vector_2" d="M21 4C14.1285 5.33333 13.5038 12 13.5038 12M13.5038 12V16.2519C13.5038 16.9471 13.5038 17.2947 13.5611 17.5838C13.7975 18.7751 14.7287 19.7063 15.9199 19.9426C16.209 20 16.5567 20 17.2519 20V20C17.9471 20 18.2947 20 18.5838 19.9426C19.7751 19.7063 20.7063 18.7751 20.9427 17.5838C21 17.2947 21 16.9471 21 16.2519V16C21 15.07 21 14.605 20.8978 14.2235C20.6204 13.1883 19.8117 12.3796 18.7765 12.1022C18.395 12 17.93 12 17 12H13.5038Z" stroke="white" stroke-width="1.5"/>
</g>
</g>
</svg>
